<?xml version="1.0" standalone="no"?>
<!DOCTYPE svg PUBLIC "-//W3C//DTD SVG 20010904//EN"
 "http://www.w3.org/TR/2001/REC-SVG-20010904/DTD/svg10.dtd">
<svg version="1.0" xmlns="http://www.w3.org/2000/svg"
 width="201.000000pt" height="251.000000pt" viewBox="0 0 201.000000 251.000000"
 preserveAspectRatio="xMidYMid meet">

<g transform="translate(0.000000,251.000000) scale(0.100000,-0.100000)"
fill="#000000" stroke="none">
<path d="M353 1548 c3 -518 5 -600 20 -648 64 -214 213 -365 422 -430 100 -31
258 -38 361 -16 115 25 231 84 309 157 77 72 123 145 162 254 l28 80 3 598 3
597 -656 0 -656 0 4 -592z m531 550 c8 -14 5 -23 -19 -48 l-29 -30 27 0 c15 0
27 -4 27 -10 0 -5 -20 -10 -45 -10 -25 0 -45 3 -45 7 0 4 17 24 37 45 31 31
34 38 20 44 -10 3 -24 1 -31 -5 -9 -8 -16 -8 -20 -2 -8 13 24 31 48 28 10 -1
24 -10 30 -19z m100 6 c33 -32 13 -104 -29 -104 -27 0 -45 25 -45 64 0 27 23
56 45 56 7 0 21 -7 29 -16z m107 6 c25 -14 24 -22 -7 -59 l-26 -31 26 0 c14 0
26 -4 26 -10 0 -5 -20 -10 -45 -10 -25 0 -45 4 -45 8 0 5 14 21 30 37 17 16
30 35 30 42 0 15 -26 18 -35 3 -4 -6 -11 -8 -16 -4 -13 8 9 34 28 34 8 0 23
-5 34 -10z m113 -6 c19 -18 9 -44 -26 -68 l-22 -16 26 0 c15 0 30 -4 33 -10 4
-6 -12 -10 -39 -10 -25 0 -46 4 -46 8 0 5 14 21 30 37 17 16 30 35 30 42 0 15
-26 18 -35 3 -4 -6 -11 -8 -16 -4 -14 8 9 34 32 34 9 0 25 -7 33 -16z m-657
-17 c6 -4 14 -3 17 2 7 10 61 9 72 -2 4 -4 13 -2 20 4 16 13 37 2 28 -13 -4
-6 -2 -8 3 -5 6 4 16 1 22 -6 8 -11 5 -18 -12 -33 -18 -16 -37 -20 -102 -19
-61 0 -79 3 -77 13 1 8 -2 11 -8 7 -7 -4 -14 2 -17 13 -3 14 -11 18 -25 14
-16 -4 -19 -2 -13 9 6 11 5 12 -6 2 -7 -7 -24 -13 -38 -13 -23 0 -23 1 -8 18
13 14 31 18 75 18 31 -1 62 -4 69 -9z m960 -6 c9 -12 9 -18 0 -23 -14 -9 -3
-11 67 -8 46 2 49 0 36 -15 -8 -10 -23 -21 -35 -25 -18 -8 -19 -9 -1 -9 10 -1
24 7 31 16 10 14 12 10 12 -25 0 -23 -4 -42 -10 -42 -6 0 -6 -4 0 -12 14 -17
13 -81 -1 -90 -8 -6 -8 -8 0 -8 6 0 11 -17 11 -40 0 -22 -4 -40 -10 -40 -6 0
-6 -4 0 -12 13 -17 13 -81 0 -90 -7 -4 -7 -11 1 -20 23 -28 1 -118 -29 -118
-5 0 -18 8 -28 17 -14 12 -17 21 -11 33 5 9 5 22 0 30 -6 9 -4 20 6 31 13 14
13 18 -1 29 -12 10 -13 16 -4 26 9 11 8 18 -1 29 -14 17 -4 38 13 28 7 -3 4 2
-5 13 -14 16 -15 23 -6 32 9 9 9 15 0 24 -8 8 -8 15 -1 24 7 8 7 14 -1 19 -8
5 -8 11 1 21 9 11 9 17 -1 29 -10 12 -10 18 -1 29 9 10 9 16 1 21 -8 5 -8 11
0 20 8 10 9 19 1 32 -6 10 -11 14 -11 9 0 -5 -7 -3 -15 4 -8 7 -15 8 -15 3 0
-6 -36 -9 -83 -9 -64 1 -88 5 -100 18 -21 20 -21 27 -2 48 20 22 175 23 192 1z
m100 -3 c15 -16 13 -17 -28 -16 -42 0 -69 11 -69 28 0 15 80 4 97 -12z m-1119
-41 c18 -14 15 -30 -4 -23 -14 5 -16 1 -11 -29 6 -38 -3 -45 -24 -19 -10 12
-10 20 -1 34 9 15 8 17 -6 13 -19 -5 -24 -53 -6 -53 21 0 38 -31 40 -72 2 -43
-13 -47 -32 -9 -11 20 -12 21 -16 3 -4 -13 3 -22 22 -30 24 -11 27 -18 26 -52
0 -22 -4 -40 -9 -40 -4 0 -5 -6 0 -12 10 -17 10 -81 0 -89 -5 -4 -3 -16 4 -27
11 -17 11 -24 1 -34 -8 -8 -9 -15 0 -25 8 -10 6 -19 -12 -38 l-23 -25 -21 22
c-24 25 -29 83 -9 99 10 9 11 15 2 26 -16 18 -20 75 -7 91 6 6 6 12 2 12 -5 0
-10 18 -10 40 -1 22 3 40 8 40 5 0 6 5 2 11 -11 19 -14 78 -3 84 5 4 6 11 2
18 -4 6 -8 30 -8 54 l-2 43 41 -2 c22 0 47 -5 54 -11z m1002 -529 c0 -502 -3
-536 -56 -640 -31 -62 -113 -151 -169 -184 -179 -104 -415 -87 -573 43 -57 46
-116 138 -144 222 -22 64 -22 83 -26 544 l-3 477 485 0 486 0 0 -462z m-1029
-83 c9 6 11 3 6 -8 -4 -10 -2 -17 5 -17 7 0 7 -4 -1 -13 -6 -8 -8 -16 -6 -19
3 -3 -3 -8 -15 -11 -11 -3 -20 -1 -20 4 0 4 -7 6 -15 3 -11 -5 -13 -2 -9 10 3
9 1 16 -5 16 -7 0 -1 11 11 23 13 14 26 20 29 14 4 -5 13 -6 20 -2z m1140 0
c9 6 11 3 6 -8 -4 -10 -2 -17 5 -17 7 0 7 -4 -1 -13 -6 -8 -8 -16 -6 -19 3 -3
-3 -8 -15 -11 -11 -3 -20 -1 -20 4 0 4 -7 5 -17 2 -10 -4 -14 -2 -9 5 3 6 2
13 -4 17 -6 3 0 16 13 29 12 13 25 19 28 13 4 -5 13 -6 20 -2z m-81 -135 c0
-5 -2 -10 -4 -10 -3 0 -8 5 -11 10 -3 6 -1 10 4 10 6 0 11 -4 11 -10z m105 0
c-3 -5 -26 -10 -51 -10 -24 0 -44 5 -44 10 0 6 23 10 51 10 31 0 48 -4 44 -10z
m-1145 -14 c0 -8 -15 -19 -32 -26 l-33 -12 33 -9 c50 -15 42 -39 -13 -39 -48
0 -64 19 -17 21 l27 1 -27 10 c-37 13 -35 25 5 37 l32 9 -32 1 c-51 1 -39 21
12 21 32 0 45 -4 45 -14z m1106 -46 c24 0 44 -4 44 -10 0 -5 -20 -10 -44 -10
-34 0 -46 -4 -49 -17 -3 -10 -5 2 -5 27 0 25 2 37 5 28 3 -14 15 -18 49 -18z
m-1106 -80 c0 -5 -20 -10 -45 -10 -25 0 -45 5 -45 10 0 6 20 10 45 10 25 0 45
-4 45 -10z m30 0 c0 -5 -2 -10 -4 -10 -3 0 -8 5 -11 10 -3 6 -1 10 4 10 6 0
11 -4 11 -10z m1046 -50 c8 0 15 11 15 28 l2 27 4 -27 c6 -39 33 -37 33 2 0
17 5 30 11 30 6 0 9 -16 7 -37 -3 -38 -3 -38 -50 -41 l-48 -3 2 43 c1 37 2 38
5 11 3 -20 10 -33 19 -33z m-1076 10 c0 -5 -18 -10 -39 -10 -37 0 -40 -2 -44
-32 l-4 -33 -1 37 c-2 27 2 38 16 41 32 9 72 7 72 -3z m1068 -62 c-2 -6 12
-15 30 -18 50 -11 53 -23 5 -18 -30 2 -43 0 -43 -9 0 -7 -4 -13 -8 -13 -4 0
-6 16 -4 35 2 19 8 35 13 35 5 0 8 -5 7 -12z m-1068 -28 c0 -5 -9 -10 -19 -10
-35 0 -51 -12 -52 -39 0 -23 -1 -24 -9 -6 -16 37 -11 53 18 58 50 8 62 7 62
-3z m1124 -71 c8 -9 1 -10 -29 -4 -54 9 -74 30 -21 22 22 -4 44 -11 50 -18z
m-1104 -9 c0 -5 -17 -14 -37 -19 -46 -13 -53 -13 -53 -2 0 4 19 13 43 18 23 6
43 11 45 12 1 0 2 -3 2 -9z m1025 -30 c-26 -29 -10 -38 20 -10 26 24 55 22 55
-5 0 -27 -20 -55 -38 -55 -16 1 -16 2 1 14 18 14 24 46 7 46 -5 0 -14 -9 -20
-20 -15 -28 -50 -26 -50 3 0 24 17 47 34 47 5 0 1 -9 -9 -20z m-992 -74 c3 -8
-3 -22 -14 -32 -27 -24 -24 -35 7 -24 34 13 44 13 44 -4 0 -14 -58 -56 -76
-56 -5 1 5 12 21 26 29 25 29 25 5 18 -14 -4 -31 -9 -37 -11 -22 -9 -14 20 15
51 l27 29 -33 -22 c-18 -13 -36 -20 -40 -16 -4 3 0 10 8 15 8 5 24 16 35 24
25 19 31 20 38 2z m985 -12 c6 -11 17 -15 31 -11 11 3 21 1 21 -4 0 -5 -12
-12 -27 -15 -44 -11 -47 -16 -22 -35 29 -23 9 -25 -32 -3 -28 14 -32 14 -50
-2 -18 -17 -26 -44 -12 -44 3 0 15 7 25 17 10 9 18 11 18 6 0 -6 -7 -16 -15
-23 -11 -9 -13 -16 -6 -23 7 -7 19 -3 37 14 24 21 26 22 16 3 -23 -45 -38 -48
-78 -17 l-38 28 8 -25 c13 -46 19 -90 12 -90 -13 0 -86 45 -86 53 0 11 14 8
38 -9 29 -20 35 -14 22 20 -9 24 -6 32 22 66 18 22 36 40 41 40 4 0 7 6 7 13
0 20 30 57 45 57 8 0 18 -7 23 -16z m-953 -106 c-24 -28 -25 -33 -11 -47 14
-14 19 -12 46 14 34 33 41 23 8 -12 -24 -25 -48 -29 -66 -11 -18 18 -15 39 10
65 32 35 44 28 13 -9z m124 -62 c17 -21 6 -63 -18 -71 -20 -6 -71 13 -71 27 0
4 10 24 22 42 23 36 39 36 67 2z m640 -50 c23 -36 25 -46 13 -46 -5 0 -18 18
-31 40 -27 48 -11 54 18 6z m-25 -43 c9 -29 -7 -30 -47 -1 -25 18 -29 19 -24
5 4 -9 10 -24 13 -32 3 -8 2 -15 -3 -15 -12 0 -43 76 -35 84 3 3 20 -4 38 -15
l34 -21 -6 34 c-5 33 -5 33 9 8 8 -14 18 -35 21 -47z m-534 7 l0 -50 -20 20
c-15 15 -28 19 -48 14 l-27 -7 34 37 c48 50 61 47 61 -14z m134 7 c3 4 6 -14
6 -40 0 -25 -4 -49 -10 -52 -6 -4 -10 12 -10 39 0 33 -4 46 -14 46 -8 0 -21 3
-30 6 -11 4 -16 1 -16 -10 0 -9 6 -16 14 -16 8 0 18 -5 22 -11 5 -8 -1 -10
-19 -5 -20 5 -27 2 -32 -14 -4 -11 -10 -18 -15 -15 -5 3 -2 25 6 49 l15 45 39
-14 c21 -7 41 -11 44 -8z m290 -9 c15 -57 3 -78 -44 -78 -17 0 -40 44 -40 76
0 28 17 13 26 -23 13 -55 39 -51 38 5 -1 45 10 56 20 20z m-186 -10 c19 -19
15 -66 -7 -78 -27 -14 -37 -13 -55 6 -27 27 -20 44 19 44 19 0 35 5 35 10 0
17 -29 23 -45 10 -15 -12 -22 0 -8 13 11 11 48 8 61 -5z"/>
<path d="M942 2058 c2 -24 8 -43 13 -43 6 0 11 19 13 43 3 33 0 42 -13 42 -13
0 -16 -9 -13 -42z"/>
<path d="M617 2069 c7 -9 11 -18 9 -20 -3 -2 11 -4 30 -3 38 2 59 13 28 15
-10 1 -25 1 -32 0 -8 -1 -21 4 -30 11 -15 11 -15 11 -5 -3z"/>
<path d="M530 2054 c0 -7 5 -16 12 -20 7 -4 8 -3 4 4 -5 8 4 12 30 12 46 0 39
10 -10 13 -24 2 -36 -1 -36 -9z"/>
<path d="M1374 2072 c4 -7 -4 -10 -24 -10 -17 1 -33 -2 -37 -5 -3 -4 1 -7 11
-7 11 0 15 -4 10 -12 -6 -9 -3 -9 9 1 9 7 24 11 32 7 18 -6 21 19 3 30 -6 4
-8 3 -4 -4z"/>
<path d="M1466 2068 c5 -7 1 -9 -13 -6 -12 3 -27 2 -34 -3 -11 -7 -11 -9 -1
-9 8 0 10 -5 6 -12 -6 -9 -3 -9 9 0 9 8 25 11 37 7 20 -6 21 -5 11 14 -7 12
-14 21 -17 21 -3 0 -2 -5 2 -12z"/>
<path d="M1570 1975 c0 -8 4 -15 10 -15 5 0 7 7 4 15 -4 8 -8 15 -10 15 -2 0
-4 -7 -4 -15z"/>
<path d="M1563 1917 c0 -7 9 -13 19 -13 10 0 18 1 18 3 0 1 -8 7 -18 12 -13 7
-19 6 -19 -2z"/>
<path d="M1566 1875 c-3 -9 0 -15 9 -15 9 0 12 6 9 15 -4 8 -7 15 -9 15 -2 0
-5 -7 -9 -15z"/>
<path d="M1560 1820 c0 -6 7 -10 15 -10 8 0 15 2 15 4 0 2 -7 6 -15 10 -8 3
-15 1 -15 -4z"/>
<path d="M1570 1785 c0 -8 4 -15 10 -15 5 0 7 7 4 15 -4 8 -8 15 -10 15 -2 0
-4 -7 -4 -15z"/>
<path d="M1565 1721 c-3 -6 3 -9 14 -8 11 0 17 5 15 9 -7 11 -22 10 -29 -1z"/>
<path d="M1570 1685 c0 -8 4 -15 10 -15 5 0 7 7 4 15 -4 8 -8 15 -10 15 -2 0
-4 -7 -4 -15z"/>
<path d="M1567 1611 c-3 -12 -1 -21 3 -21 14 0 19 15 11 29 -6 9 -10 7 -14 -8z"/>
<path d="M1567 1567 c-3 -7 3 -13 14 -13 13 0 15 3 7 13 -6 7 -12 13 -13 13
-2 0 -5 -6 -8 -13z"/>
<path d="M425 1795 c0 -14 5 -25 12 -25 6 0 9 9 5 22 -4 16 -2 19 8 13 9 -5
11 -4 6 3 -13 21 -31 13 -31 -13z"/>
<path d="M433 1724 c3 -3 2 -17 -3 -30 -7 -18 -6 -24 4 -24 10 0 12 7 8 22 -3
14 -1 19 6 14 8 -5 10 -2 6 8 -3 9 -11 16 -17 16 -6 0 -8 -3 -4 -6z"/>
<path d="M423 1611 c-10 -16 -9 -18 7 -14 11 3 16 11 13 19 -7 18 -6 18 -20
-5z"/>
<path d="M430 1578 c0 -9 5 -20 10 -23 13 -8 13 5 0 25 -8 13 -10 13 -10 -2z"/>
<path d="M550 1497 c0 -487 2 -507 62 -618 94 -178 320 -274 523 -223 l24 6 3
179 3 179 -53 11 c-69 14 -89 6 -29 -11 26 -8 47 -17 47 -21 0 -17 -16 -15
-66 7 l-54 24 -50 -20 c-53 -21 -91 -27 -74 -11 5 5 27 14 49 21 52 17 28 25
-33 11 -31 -8 -58 -8 -79 -2 -37 11 -49 1 -45 -39 4 -32 -32 -67 -73 -73 l-30
-4 31 -2 c42 -2 84 37 84 79 0 30 11 37 44 24 14 -5 16 -30 16 -171 l0 -164
-49 26 c-74 41 -120 83 -162 148 -22 33 -39 64 -39 68 0 5 15 7 34 5 19 -1 32
2 29 7 -3 5 -14 7 -24 4 -23 -6 -35 9 -20 27 7 9 7 16 -1 24 -9 9 -9 12 -1 12
7 0 15 -4 18 -10 3 -5 24 4 47 20 31 23 44 27 54 19 16 -13 6 -26 -46 -57 -31
-20 -32 -20 -11 -32 16 -8 28 -8 49 2 41 20 39 63 -6 110 -20 21 -32 41 -28
45 5 5 15 -2 23 -14 14 -21 41 -34 29 -14 -3 4 6 7 19 5 37 -4 30 13 -9 20
-18 4 -41 15 -51 26 -18 20 -17 20 21 21 33 1 35 2 14 8 -15 4 -24 14 -22 23
1 9 -6 19 -15 22 -14 6 -15 4 -6 -5 9 -9 8 -15 -3 -27 -8 -8 -18 -11 -22 -7
-4 4 -1 10 6 12 8 3 2 16 -18 41 -16 20 -27 38 -23 41 3 3 8 0 10 -7 3 -7 21
-19 40 -27 41 -17 57 -19 48 -6 -3 5 1 15 7 23 7 7 36 61 65 119 l51 106 46 7
c31 5 53 3 72 -7 24 -13 32 -13 62 0 23 10 46 11 75 6 42 -8 42 -9 97 -120 30
-62 58 -115 61 -118 4 -3 17 10 29 31 20 32 72 74 92 74 4 0 5 -8 2 -17 -3
-10 2 -5 11 10 9 16 13 37 10 48 -6 18 -9 17 -33 -15 -38 -50 -52 -53 -52 -12
0 19 -3 41 -6 50 -12 30 -19 7 -18 -51 1 -44 -3 -64 -18 -83 l-20 -25 7 28 c5
20 4 27 -5 25 -19 -5 -55 61 -41 75 8 8 12 2 17 -21 4 -18 10 -35 15 -37 12
-8 -2 69 -14 77 -7 4 -6 12 3 22 7 9 10 19 6 23 -3 3 -6 2 -6 -3 0 -5 -9 -20
-19 -33 l-19 -24 -11 22 c-10 17 -10 26 0 39 8 9 9 14 4 9 -4 -4 -17 0 -27 10
-13 12 -18 31 -18 72 0 43 -3 52 -12 43 -15 -15 -48 -15 -68 -1 -12 8 -11 9 6
4 51 -14 67 19 38 78 -11 22 -12 28 -3 19 8 -7 20 -27 26 -45 l13 -32 -2 40
c-2 71 1 87 15 79 8 -6 8 -3 -1 9 -8 9 -22 19 -33 22 -15 5 -17 10 -9 25 24
45 0 79 -46 64 -18 -5 -18 -5 -1 6 10 6 28 10 40 8 19 -3 22 -8 20 -50 -1 -27
3 -48 8 -48 5 0 9 43 9 95 l0 94 153 4 c83 1 -54 4 -305 5 l-458 2 0 -443z
m299 346 c-2 -70 -7 -92 -22 -110 -11 -12 -24 -20 -29 -17 -5 3 -29 -6 -54
-20 -26 -14 -48 -26 -49 -26 -2 0 -6 14 -10 31 -10 44 -29 30 -36 -27 -4 -27
-14 -64 -23 -81 -9 -18 -16 -43 -16 -57 0 -14 -5 -28 -10 -31 -17 -11 -8 -155
12 -197 10 -20 15 -44 12 -52 -3 -9 4 -27 15 -42 12 -15 21 -37 21 -49 0 -12
6 -28 14 -34 8 -7 12 -20 9 -30 -2 -9 3 -23 11 -30 9 -8 16 -16 16 -20 0 -14
-66 -45 -88 -42 -20 2 -23 -1 -18 -17 4 -10 2 -30 -2 -43 -8 -21 -12 -14 -26
48 -13 61 -16 140 -16 502 l0 431 146 0 146 0 -3 -87z m177 39 c14 -9 34 -47
34 -64 -1 -7 -7 2 -15 20 -17 38 -47 43 -69 10 -21 -30 -21 -14 0 17 17 26 31
30 50 17z m-96 -52 c11 -8 9 -9 -11 -5 -17 4 -30 1 -38 -9 -9 -11 -10 -16 -2
-16 6 0 11 -9 11 -20 0 -22 -28 -28 -36 -7 -3 8 0 26 5 40 11 29 43 36 71 17z
m110 -30 c0 -5 -4 -10 -10 -10 -5 0 -10 5 -10 10 0 6 5 10 10 10 6 0 10 -4 10
-10z m-165 -64 c-39 -17 -41 -61 -4 -82 13 -7 20 -13 14 -14 -20 0 -75 40 -75
55 0 17 56 55 80 55 8 -1 1 -7 -15 -14z m163 -8 c7 -7 12 -21 12 -33 0 -47
-62 -63 -81 -21 -22 47 33 90 69 54z m-355 -58 c4 -14 2 -31 -2 -38 -6 -10
-10 -4 -15 18 -3 18 -6 40 -6 48 0 22 16 3 23 -28z m167 -122 c0 -103 -11
-120 -52 -81 -32 30 -36 65 -14 128 9 25 11 44 5 51 -5 6 -6 20 -3 30 4 11 -7
-1 -23 -26 -44 -68 -44 -68 -33 -75 6 -4 9 -1 8 5 -2 7 7 16 20 21 29 11 28
-2 -4 -40 -19 -23 -21 -29 -8 -24 14 5 16 3 11 -12 -5 -12 3 -31 28 -60 19
-24 35 -50 35 -59 0 -27 -22 -30 -41 -5 l-19 24 0 -30 c0 -17 -4 -45 -9 -63
-5 -17 -6 -32 -1 -32 10 0 20 25 20 51 0 10 5 19 10 19 6 0 10 -5 10 -11 0
-17 -31 -79 -40 -79 -4 0 -10 -13 -13 -30 -4 -18 -13 -30 -22 -30 -9 0 -13 4
-10 10 3 5 0 7 -8 4 -16 -6 -77 61 -77 83 0 23 19 14 65 -30 33 -32 44 -38 39
-23 -4 12 -10 22 -15 24 -10 4 -1 81 12 101 8 13 9 11 6 -7 -3 -13 -1 -20 5
-16 5 3 7 17 4 30 -4 14 -2 33 4 44 6 11 7 20 1 20 -11 0 -25 -30 -22 -49 2
-8 -3 -12 -12 -8 -11 4 -16 -4 -19 -34 -2 -21 1 -41 7 -43 5 -2 7 -7 3 -11 -9
-10 -40 14 -33 25 3 5 0 12 -6 16 -8 5 -9 3 -4 -6 5 -8 3 -11 -5 -8 -30 10
-69 128 -42 128 10 0 42 -38 42 -50 0 -5 4 -12 10 -15 6 -3 7 1 4 9 -3 9 -1
16 5 16 6 0 11 5 11 10 0 5 -5 9 -11 7 -15 -3 -49 62 -49 93 1 14 9 41 19 60
l19 35 8 -40 c4 -22 7 -49 6 -60 -2 -17 -1 -17 8 -5 8 11 9 4 4 -26 -7 -47 9
-67 26 -32 11 23 11 23 -5 3 -16 -19 -17 -19 -10 15 4 19 12 41 18 48 7 9 6
11 -7 6 -19 -7 -21 6 -3 26 9 11 8 11 -7 0 -18 -14 -19 -13 -13 19 9 46 31 78
68 100 l31 19 34 -38 c33 -36 34 -40 34 -122z m-70 82 c0 -5 -2 -10 -4 -10 -3
0 -8 5 -11 10 -3 6 -1 10 4 10 6 0 11 -4 11 -10z m95 -23 c-9 -34 16 -52 54
-39 25 9 30 7 40 -14 15 -34 38 -40 64 -18 l21 19 -16 -25 c-23 -36 -45 -37
-66 -1 -16 29 -20 31 -59 25 -34 -5 -44 -3 -49 10 -6 16 2 66 11 66 3 0 3 -10
0 -23z m85 -1 c0 -3 -4 -8 -10 -11 -5 -3 -10 -1 -10 4 0 6 5 11 10 11 6 0 10
-2 10 -4z m-340 -116 c0 -5 -4 -10 -10 -10 -5 0 -10 5 -10 10 0 6 5 10 10 10
6 0 10 -4 10 -10z m0 -136 c0 -8 -5 -12 -10 -9 -6 4 -8 11 -5 16 9 14 15 11
15 -7z m790 0 c0 -8 -5 -12 -10 -9 -6 4 -8 11 -5 16 9 14 15 11 15 -7z m-660
-374 c0 -14 -49 -44 -58 -36 -4 4 4 16 18 26 28 22 40 25 40 10z"/>
<path d="M831 1694 c0 -11 3 -14 6 -6 3 7 2 16 -1 19 -3 4 -6 -2 -5 -13z"/>
<path d="M666 1276 c3 -8 13 -17 22 -21 13 -5 13 -2 -3 15 -21 24 -26 25 -19
6z"/>
<path d="M1181 1725 c9 -11 19 -27 22 -35 4 -11 6 -9 6 5 1 17 3 17 11 5 8
-13 10 -12 10 3 0 11 -5 17 -12 14 -7 -2 -22 3 -33 12 -19 15 -19 15 -4 -4z"/>
<path d="M1347 1683 c-3 -23 0 -43 8 -52 10 -11 12 -4 8 35 -7 62 -9 64 -16
17z"/>
<path d="M1240 1706 c0 -3 9 -10 20 -16 11 -6 20 -8 20 -6 0 3 -9 10 -20 16
-11 6 -20 8 -20 6z"/>
<path d="M1331 1694 c0 -11 3 -14 6 -6 3 7 2 16 -1 19 -3 4 -6 -2 -5 -13z"/>
<path d="M1173 1667 c1 -15 5 -27 10 -27 10 0 9 22 -2 39 -7 10 -9 7 -8 -12z"/>
<path d="M1233 1668 c3 -10 2 -20 -3 -23 -11 -7 -8 -41 5 -52 4 -5 5 -2 1 5
-9 15 -1 15 25 1 11 -5 17 -14 15 -18 -3 -4 7 -19 22 -32 25 -22 25 -22 8 -1
-11 12 -17 25 -14 28 10 9 48 -48 47 -70 -1 -17 -2 -18 -6 -3 -2 9 -9 15 -14
12 -5 -4 -5 -15 2 -27 9 -16 8 -23 -2 -29 -11 -7 -10 -9 3 -9 11 0 18 12 23
40 7 44 13 33 -84 153 -19 23 -32 34 -28 25z m17 -38 c0 -5 -4 -10 -10 -10 -5
0 -10 5 -10 10 0 6 5 10 10 10 6 0 10 -4 10 -10z"/>
<path d="M1301 1663 c8 -13 17 -23 22 -23 4 0 6 -4 2 -9 -3 -6 1 -25 9 -43
l14 -33 1 36 c1 22 -5 42 -14 49 -13 11 -13 15 -3 23 10 7 9 8 -3 4 -9 -3 -22
0 -29 6 -8 8 -8 5 1 -10z"/>
<path d="M1280 1636 c0 -2 8 -10 18 -17 15 -13 16 -12 3 4 -13 16 -21 21 -21
13z"/>
<path d="M1376 1597 c3 -10 9 -15 12 -12 3 3 0 11 -7 18 -10 9 -11 8 -5 -6z"/>
<path d="M1244 1561 c0 -11 8 -22 18 -24 16 -5 16 -3 1 19 -19 29 -19 29 -19
5z"/>
<path d="M1391 1522 c0 -13 -5 -20 -11 -17 -5 3 -7 0 -4 -9 3 -8 -1 -25 -10
-38 -27 -38 -18 -52 12 -17 l27 33 6 -39 c6 -37 6 -35 8 18 0 31 -3 57 -8 57
-5 0 -12 8 -14 18 -3 12 -5 11 -6 -6z m19 -32 c0 -5 -2 -10 -4 -10 -3 0 -8 5
-11 10 -3 6 -1 10 4 10 6 0 11 -4 11 -10z"/>
<path d="M1247 1511 c-4 -17 -3 -21 5 -13 5 5 8 16 6 23 -3 8 -7 3 -11 -10z"/>
<path d="M1290 1491 c0 -6 4 -13 10 -16 6 -3 7 1 4 9 -7 18 -14 21 -14 7z"/>
<path d="M1219 1463 c-13 -16 -12 -17 4 -4 9 7 17 15 17 17 0 8 -8 3 -21 -13z"/>
<path d="M1270 1458 c0 -20 26 -53 33 -42 3 5 -3 20 -14 33 -12 15 -19 18 -19
9z"/>
<path d="M1276 1354 c3 -35 14 -43 14 -11 0 14 -4 28 -9 31 -4 3 -7 -6 -5 -20z"/>
<path d="M1367 1266 c-9 -13 -35 -33 -59 -45 -44 -22 -29 -30 17 -9 30 13 43
5 25 -17 -14 -16 -35 -21 -25 -5 4 6 -1 7 -11 3 -11 -4 -13 -8 -6 -11 16 -5
-11 -32 -35 -33 -10 -1 0 -5 22 -8 l40 -6 -32 -20 c-23 -13 -29 -21 -20 -27 9
-6 9 -8 0 -8 -7 0 -13 -5 -13 -11 0 -8 5 -8 15 1 8 7 12 16 9 21 -3 5 2 9 10
9 22 0 20 -13 -7 -38 -16 -15 -26 -19 -33 -12 -7 7 -11 6 -11 -4 0 -9 9 -13
23 -11 13 1 39 -8 58 -21 22 -15 42 -21 53 -17 16 6 16 4 -2 -18 -11 -13 -16
-21 -11 -17 5 4 14 4 20 -1 8 -6 11 0 12 21 1 25 -2 29 -19 24 -17 -4 -46 10
-86 41 -2 1 4 12 14 23 9 10 15 26 12 34 -3 8 3 22 14 32 11 10 17 24 14 32
-3 7 4 26 14 41 11 14 18 39 18 54 -1 15 -3 27 -3 27 -1 0 -9 -11 -17 -24z m5
-38 c-7 -7 -10 -5 -7 8 5 29 6 30 12 16 3 -8 1 -18 -5 -24z m-22 -68 c0 -5 -4
-10 -10 -10 -5 0 -10 5 -10 10 0 6 5 10 10 10 6 0 10 -4 10 -10z"/>
<path d="M1314 1248 l-19 -23 23 19 c21 18 27 26 19 26 -2 0 -12 -10 -23 -22z"/>
<path d="M816 1156 c9 -23 33 -28 27 -5 -3 10 -11 19 -19 19 -7 0 -11 -6 -8
-14z"/>
<path d="M878 1163 c7 -3 16 -2 19 1 4 3 -2 6 -13 5 -11 0 -14 -3 -6 -6z"/>
<path d="M916 1158 c3 -5 10 -6 15 -3 13 9 11 12 -6 12 -8 0 -12 -4 -9 -9z"/>
<path d="M1000 1162 c0 -7 -8 -12 -17 -10 -30 5 -29 -53 0 -80 23 -22 25 -22
45 -5 12 10 22 33 24 53 3 30 0 35 -17 33 -11 -1 -23 4 -27 10 -6 9 -8 9 -8
-1z"/>
<path d="M1080 1144 c-6 -14 -10 -31 -9 -37 0 -7 5 2 11 18 6 17 16 33 22 37
8 5 7 8 -2 8 -7 0 -17 -12 -22 -26z"/>
<path d="M1176 1154 c-4 -10 -1 -14 6 -12 15 5 23 28 10 28 -5 0 -13 -7 -16
-16z"/>
<path d="M886 1141 c-3 -5 3 -20 14 -32 11 -13 19 -19 20 -13 0 6 -7 17 -15
24 -8 7 -12 16 -9 21 3 5 3 9 0 9 -3 0 -7 -4 -10 -9z"/>
<path d="M1110 1133 c0 -12 -15 -34 -32 -49 -18 -15 -25 -25 -15 -21 10 4 23
7 28 7 6 0 7 5 4 10 -3 6 -2 10 4 10 18 0 34 41 22 53 -8 8 -11 5 -11 -10z"/>
<path d="M931 1114 c0 -11 3 -14 6 -6 3 7 2 16 -1 19 -3 4 -6 -2 -5 -13z"/>
<path d="M1146 1114 c-11 -8 -16 -14 -10 -14 13 0 39 18 34 24 -3 2 -14 -2
-24 -10z"/>
<path d="M758 1113 c6 -2 18 -2 25 0 6 3 1 5 -13 5 -14 0 -19 -2 -12 -5z"/>
<path d="M864 1106 c19 -15 18 -16 -17 -16 -21 0 -37 -5 -37 -11 0 -7 9 -9 23
-5 12 3 32 6 45 6 27 0 21 15 -11 30 -21 11 -21 11 -3 -4z"/>
<path d="M922 1081 c-10 -6 -7 -10 12 -13 21 -4 24 -3 15 8 -13 16 -11 16 -27
5z"/>
<path d="M1145 1080 c44 -11 65 -11 65 0 0 6 -21 9 -47 9 -43 -1 -45 -2 -18
-9z"/>
<path d="M1220 1082 c0 -4 9 -8 20 -9 11 -1 20 2 20 8 0 5 -9 9 -20 9 -11 0
-20 -4 -20 -8z"/>
<path d="M1452 1055 c0 -16 2 -22 5 -12 2 9 2 23 0 30 -3 6 -5 -1 -5 -18z"/>
<path d="M1126 1062 c-3 -4 4 -9 15 -9 23 -2 25 3 4 10 -8 4 -16 3 -19 -1z"/>
<path d="M1203 1043 c4 -6 0 -13 -10 -16 -12 -3 -8 -5 9 -6 14 0 29 -7 31 -13
3 -8 6 -8 6 -2 1 6 -9 19 -21 30 -12 10 -18 14 -15 7z"/>
<path d="M1257 1013 c-14 -13 -6 -40 16 -59 l22 -19 -19 22 c-27 33 -16 45 22
22 36 -23 40 -35 15 -42 -15 -4 -15 -5 -2 -6 9 0 22 6 29 14 7 8 8 15 3 15 -5
0 -18 8 -29 18 -38 34 -51 42 -57 35z"/>
<path d="M1436 984 c-4 -14 -5 -28 -3 -31 3 -2 8 8 11 23 4 14 5 28 3 31 -3 2
-8 -8 -11 -23z"/>
<path d="M1351 936 c-9 -10 -6 -12 14 -8 29 5 31 8 11 15 -8 3 -19 0 -25 -7z"/>
<path d="M1298 913 c6 -2 18 -2 25 0 6 3 1 5 -13 5 -14 0 -19 -2 -12 -5z"/>
<path d="M1333 791 c-30 -33 -75 -70 -107 -87 -30 -16 -53 -30 -51 -32 8 -8
90 43 132 81 38 35 91 97 81 97 -2 0 -26 -27 -55 -59z"/>
<path d="M1482 818 c-16 -16 -15 -38 2 -38 17 0 30 30 18 42 -4 4 -13 3 -20
-4z"/>
<path d="M635 644 c-17 -26 -17 -28 0 -40 34 -25 64 28 31 55 -11 9 -17 6 -31
-15z"/>
<path d="M734 589 c-3 -6 -1 -16 5 -22 6 -6 11 -9 12 -6 0 2 2 12 4 22 4 19
-10 23 -21 6z"/>
<path d="M950 506 c0 -10 9 -16 25 -16 14 0 25 5 25 10 0 6 -4 10 -9 10 -5 0
-16 3 -25 6 -11 4 -16 1 -16 -10z"/>
</g>
</svg>
